# xmcd
#
# Track frame offsets:
# 150
# 12938
# 23025
# 37087
# 47774
# 60674
# 104999
# 118883
#
# Disc length: 1733 seconds
#
#
# Revision: 0
# Processed by: cddbd v1.4PL0 Copyright (c) Steve Scherf et al.
# Submitted via: FreeRIP 2.52 
#
DISCID=6f06c308
DTITLE=Charlie Pride - Charlie Pride Live
DYEAR=1982
DGENRE=Country
TTITLE0=A Whole Lotta Things To Sing About
TTITLE1=Is Anybody Going To San Antone
TTITLE2=Kaw-Liga
TTITLE3=Oklahoma Morning
TTITLE4=Since You Came Into My Life
TTITLE5=Tennessee Girl
TTITLE6=When I Stop Leaving (I'll Be Gone)
TTITLE7=Your My Jamaica
EXTD=
EXTT0=
EXTT1=
EXTT2=
EXTT3=
EXTT4=
EXTT5=
EXTT6=
EXTT7=
PLAYORDER=
